<?xml version="1.0" encoding="UTF-8" standalone="no"?>
<!-- Generator: Adobe Illustrator 16.0.0, SVG Export Plug-In . SVG Version: 6.00 Build 0)  -->

<svg
   xmlns:dc="http://purl.org/dc/elements/1.1/"
   xmlns:cc="http://creativecommons.org/ns#"
   xmlns:rdf="http://www.w3.org/1999/02/22-rdf-syntax-ns#"
   xmlns:svg="http://www.w3.org/2000/svg"
   xmlns="http://www.w3.org/2000/svg"
   xmlns:xlink="http://www.w3.org/1999/xlink"
   xmlns:sodipodi="http://sodipodi.sourceforge.net/DTD/sodipodi-0.dtd"
   xmlns:inkscape="http://www.inkscape.org/namespaces/inkscape"
   version="1.1"
   id="Layer_1"
   x="0px"
   y="0px"
   width="48"
   height="48"
   viewBox="7.727 7.821 47.999999 48"
   enable-background="new 7.727 7.821 46.546 46.452"
   xml:space="preserve"
   inkscape:version="0.91 r13725"
   sodipodi:docname="nautilus-convert2mp3.svg"><metadata
     id="metadata11"><rdf:RDF><cc:Work
         rdf:about=""><dc:format>image/svg+xml</dc:format><dc:type
           rdf:resource="http://purl.org/dc/dcmitype/StillImage" /><dc:title /></cc:Work></rdf:RDF></metadata><defs
     id="defs9"><radialGradient
       inkscape:collect="always"
       xlink:href="#linearGradient2193"
       id="radialGradient2381"
       gradientUnits="userSpaceOnUse"
       gradientTransform="matrix(-1.406852,-0.02719337,-0.02615301,1.353029,28.40827,13.10321)"
       cx="2.2106946"
       cy="9.6087761"
       fx="1.6693171"
       fy="8.8713007"
       r="12.332547" /><linearGradient
       id="linearGradient2193"><stop
         style="stop-color:#7c2f03;stop-opacity:1"
         offset="0"
         id="stop2195" /><stop
         style="stop-color:#ff9730;stop-opacity:1"
         offset="1"
         id="stop2197" /></linearGradient><linearGradient
       inkscape:collect="always"
       xlink:href="#linearGradient2207"
       id="linearGradient2383"
       gradientUnits="userSpaceOnUse"
       gradientTransform="matrix(0.941299,0,0,0.95119,1.512638,1.012529)"
       x1="9.8042097"
       y1="-2.4229071"
       x2="35.825676"
       y2="37.941383" /><linearGradient
       inkscape:collect="always"
       id="linearGradient2207"><stop
         style="stop-color:#ffffff;stop-opacity:1;"
         offset="0"
         id="stop2209" /><stop
         style="stop-color:white;stop-opacity:0.37642586"
         offset="1"
         id="stop2211" /></linearGradient><linearGradient
       inkscape:collect="always"
       xlink:href="#linearGradient2254"
       id="linearGradient2234"
       gradientUnits="userSpaceOnUse"
       x1="36.589283"
       y1="10.541481"
       x2="25.339285"
       y2="25.987909" /><linearGradient
       inkscape:collect="always"
       id="linearGradient2254"><stop
         style="stop-color:#8c4104;stop-opacity:1"
         offset="0"
         id="stop2256" /><stop
         style="stop-color:#a04e0b;stop-opacity:0;"
         offset="1"
         id="stop2258" /></linearGradient><linearGradient
       inkscape:collect="always"
       xlink:href="#linearGradient2207"
       id="linearGradient2387"
       gradientUnits="userSpaceOnUse"
       x1="26.59787"
       y1="16.85297"
       x2="21.066965"
       y2="-3.1949208" /><filter
       style="color-interpolation-filters:sRGB;"
       inkscape:label="Drop Shadow"
       id="filter4644"><feFlood
         flood-opacity="0.498039"
         flood-color="rgb(0,0,0)"
         result="flood"
         id="feFlood4646" /><feComposite
         in="flood"
         in2="SourceGraphic"
         operator="in"
         result="composite1"
         id="feComposite4648" /><feGaussianBlur
         in="composite1"
         stdDeviation="3"
         result="blur"
         id="feGaussianBlur4650" /><feOffset
         dx="4.1"
         dy="6"
         result="offset"
         id="feOffset4652" /><feComposite
         in="SourceGraphic"
         in2="offset"
         operator="over"
         result="composite2"
         id="feComposite4654" /></filter><filter
       style="color-interpolation-filters:sRGB;"
       inkscape:label="Drop Shadow"
       id="filter4668"><feFlood
         flood-opacity="0.498039"
         flood-color="rgb(0,0,0)"
         result="flood"
         id="feFlood4670" /><feComposite
         in="flood"
         in2="SourceGraphic"
         operator="in"
         result="composite1"
         id="feComposite4672" /><feGaussianBlur
         in="composite1"
         stdDeviation="3"
         result="blur"
         id="feGaussianBlur4674" /><feOffset
         dx="3"
         dy="3"
         result="offset"
         id="feOffset4676" /><feComposite
         in="SourceGraphic"
         in2="offset"
         operator="over"
         result="composite2"
         id="feComposite4678" /></filter><filter
       style="color-interpolation-filters:sRGB;"
       inkscape:label="Drop Shadow"
       id="filter3371"><feFlood
         flood-opacity="0.498039"
         flood-color="rgb(0,0,0)"
         result="flood"
         id="feFlood3373" /><feComposite
         in="flood"
         in2="SourceGraphic"
         operator="in"
         result="composite1"
         id="feComposite3375" /><feGaussianBlur
         in="composite1"
         stdDeviation="3"
         result="blur"
         id="feGaussianBlur3377" /><feOffset
         dx="0"
         dy="0"
         result="offset"
         id="feOffset3379" /><feComposite
         in="SourceGraphic"
         in2="offset"
         operator="over"
         result="composite2"
         id="feComposite3381" /></filter></defs><sodipodi:namedview
     pagecolor="#ffffff"
     bordercolor="#666666"
     borderopacity="1"
     objecttolerance="10"
     gridtolerance="10"
     guidetolerance="10"
     inkscape:pageopacity="0"
     inkscape:pageshadow="2"
     inkscape:window-width="1920"
     inkscape:window-height="1021"
     id="namedview7"
     showgrid="false"
     inkscape:zoom="10.161027"
     inkscape:cx="15.083395"
     inkscape:cy="13.339382"
     inkscape:window-x="0"
     inkscape:window-y="27"
     inkscape:window-maximized="1"
     inkscape:current-layer="Layer_1" /><g
     style="display:inline;filter:url(#filter4668)"
     id="g2375"
     transform="matrix(0.86412304,0,0,0.88275446,11.885504,13.252098)"><path
       inkscape:connector-curvature="0"
       sodipodi:nodetypes="cssssssscc"
       id="path1314"
       d="m 24.634088,27.484359 c -0.237945,0.675665 0.182485,1.248618 0.86419,1.61831 1.404127,0.761464 2.926139,-0.167957 3.370392,-1.652367 0.792111,-2.646724 -0.237945,-4.718701 -2.442214,-5.797574 -4.211252,-2.061185 -8.459758,1.46557 -9.919214,5.394366 -2.204269,5.933802 2.216574,12.469422 8.364532,14.0118 9.213857,2.311542 18.11317,-4.565427 20.151807,-13.198127 C 47.953982,15.451859 38.466478,3.253309 26.28729,1.017909 17.470211,-0.60040077 7.180622,2.1474467 0.38712155,8.0646418 1.387121,18.064642 8.1391657,23.5 15.639166,27.5"
       style="fill:url(#radialGradient2381);fill-opacity:1;fill-rule:nonzero;stroke:#582a02;stroke-width:1.09044194;stroke-linecap:round;stroke-linejoin:miter;stroke-miterlimit:4;stroke-dasharray:none;stroke-opacity:1" /><path
       inkscape:connector-curvature="0"
       sodipodi:nodetypes="csssssscc"
       id="path2215"
       d="m 25.736223,28.023796 c 0.5,0.5 1.512374,0.37402 1.985446,-0.717282 0.49156,-1.133951 0.49156,-3.427926 -1.617295,-4.568114 -3.396962,-1.836627 -7.747163,1.045186 -8.906899,5.625967 -1.222154,4.827321 2.993024,10.591009 7.952889,11.668738 C 33.879487,41.929856 41.887182,35.907276 43.928086,27.55413 46.676145,16.306695 38.470015,4.8174055 26.28729,2.1308393 19.114881,0.54916101 8.1020654,2.6702759 1.4892564,8.6040784 2.6261826,17.473464 9.1110152,22.771135 15.758616,26.410962"
       style="opacity:0.49019608;fill:none;fill-opacity:1;fill-rule:nonzero;stroke:url(#linearGradient2383);stroke-width:1.09044194;stroke-linecap:round;stroke-linejoin:miter;stroke-miterlimit:4;stroke-dasharray:none;stroke-opacity:1" /><path
       inkscape:connector-curvature="0"
       style="fill:url(#linearGradient2234);fill-opacity:1;fill-rule:evenodd;stroke:none;stroke-width:0.25pt;stroke-linecap:butt;stroke-linejoin:miter;stroke-opacity:1"
       d="m 21.9375,4.8125 c 1.81466,4.6344652 2.72091,10.188642 0.90625,15.75 C 24.009085,21.170774 25.573272,21.766726 26,22.375 28.258231,14.049247 27.3751,8.5157272 21.9375,4.8125 Z M 11.999998,5.5000005 C 14.999998,9.0000011 19.107723,15.222706 19,21 c 1.381579,-0.337719 2.236609,-0.989612 3.499997,-0.499997 -0.5,-7 -4,-14.0000023 -10.499999,-15.0000025 z M 30.09375,7.59375 c -0.355612,6.185518 -1.356675,10.646785 -3.625,15.28125 0.529306,0.917805 1.312321,1.816802 1.09375,2.84375 -0.03998,0.173226 -0.114611,0.379911 -0.21875,0.5625 -0.006,0.01018 -0.02503,0.02104 -0.03125,0.03125 l -0.6875,2.03125 c -0.02972,0.01142 -0.06608,0.04647 -0.09375,0.0625 -0.0139,0.0079 -0.04809,0.02456 -0.0625,0.03125 l -1.8125,1.40625 c 3.629319,0.463447 12.68534,-2.782392 14.5,-8.34375 -3.678676,2.85274 -6.579357,3.993118 -10.4375,5.5625 2.721989,-1.766889 8.641165,-6.511749 8.1875,-13 -2.499554,4.685136 -5.740175,8.151325 -8.6875,11.15625 2.325033,-3.736538 6.41165,-10.209856 1.875,-17.625 z"
       transform="matrix(1.102135,0,0,1.078873,-0.163946,-2.184653)"
       id="path2225"
       sodipodi:nodetypes="ccccccccccssccsccccccc" /><path
       inkscape:connector-curvature="0"
       sodipodi:nodetypes="ccccsc"
       id="path2234"
       d="M 19.626245,1.2043425 C 12.732887,1.4704151 6.0951254,3.8237042 1,8.2616005 1.1919415,10.181016 4.4488631,17.670647 6.4488631,20.170647 c 11.4999999,3 13.1903029,-21.7047041 36.6903029,-5.204704 -3.5,-6.5000001 -7.73459,-10.8978288 -15.23459,-12.8978288 C 25.694597,1.4787865 21.924031,1.1156516 19.626245,1.2043425 Z"
       style="opacity:0.57254902;fill:url(#linearGradient2387);fill-opacity:1;fill-rule:nonzero;stroke:none;stroke-width:0.99999962pt;stroke-linecap:butt;stroke-linejoin:miter;stroke-opacity:1" /></g><text
     xml:space="preserve"
     style="font-style:normal;font-weight:normal;font-size:40px;line-height:125%;font-family:sans-serif;letter-spacing:0px;word-spacing:0px;fill:#000000;fill-opacity:1;stroke:none;stroke-width:1px;stroke-linecap:butt;stroke-linejoin:miter;stroke-opacity:1;filter:url(#filter3371)"
     x="28.421185"
     y="53.990669"
     id="text3363"
     sodipodi:linespacing="125%"><tspan
       sodipodi:role="line"
       id="tspan3365"
       x="28.421185"
       y="53.990669"
       style="font-style:normal;font-variant:normal;font-weight:normal;font-stretch:normal;font-size:17.5px;font-family:'Ubuntu Condensed';-inkscape-font-specification:'Ubuntu Condensed, ';letter-spacing:-1.42999995px">MP3</tspan></text>
</svg>